<svg
    id="svg"
    version="1.1"
    xmlns="http://www.w3.org/2000/svg"
    xmlns:xlink="http://www.w3.org/1999/xlink"
    width="400"
    height="400"
    viewBox="0, 0, 400,400"
><g id="svgg"><path
            id="path0"
            d="M85.600 31.808 C 56.994 36.073,35.927 57.283,31.775 86.000 C 30.958 91.650,30.958 308.350,31.775 314.000 C 36.010 343.291,56.980 364.062,86.677 368.382 C 93.321 369.348,95.770 368.796,93.575 366.828 C 91.684 365.132,86.775 360.591,84.381 358.323 C 83.292 357.290,82.400 356.277,82.400 356.071 C 82.400 355.865,81.725 354.995,80.900 354.138 C 80.075 353.280,79.145 352.089,78.832 351.489 C 78.520 350.890,78.115 350.400,77.932 350.400 C 77.750 350.400,77.600 350.164,77.600 349.875 C 77.600 349.587,77.240 348.964,76.800 348.492 C 76.360 348.020,76.000 347.356,76.000 347.017 C 76.000 346.678,75.858 346.400,75.683 346.400 C 75.509 346.400,75.088 345.815,74.748 345.100 C 74.408 344.385,73.460 342.585,72.641 341.100 C 71.822 339.615,71.298 338.397,71.476 338.394 C 71.654 338.391,71.620 338.256,71.400 338.094 C 70.882 337.713,70.000 336.133,70.000 335.586 C 70.000 335.352,69.640 334.416,69.200 333.506 C 68.760 332.595,68.400 331.434,68.400 330.925 C 68.400 330.416,68.220 330.000,68.000 330.000 C 67.780 330.000,67.600 329.460,67.600 328.800 C 67.600 328.140,67.420 327.600,67.200 327.600 C 66.980 327.600,66.800 327.071,66.800 326.424 C 66.800 325.777,66.620 325.136,66.400 325.000 C 66.180 324.864,66.000 324.043,66.000 323.176 C 66.000 322.309,65.820 321.600,65.600 321.600 C 65.378 321.600,65.200 320.533,65.200 319.200 C 65.200 317.867,65.022 316.800,64.800 316.800 C 64.554 316.800,64.400 314.808,64.400 311.624 C 64.400 308.604,64.233 306.344,64.000 306.200 C 63.446 305.857,63.446 94.143,64.000 93.800 C 64.233 93.656,64.400 91.396,64.400 88.376 C 64.400 85.192,64.554 83.200,64.800 83.200 C 65.022 83.200,65.200 82.133,65.200 80.800 C 65.200 79.467,65.378 78.400,65.600 78.400 C 65.820 78.400,66.000 77.691,66.000 76.824 C 66.000 75.957,66.180 75.136,66.400 75.000 C 66.620 74.864,66.800 74.234,66.800 73.600 C 66.800 72.966,66.980 72.336,67.200 72.200 C 67.420 72.064,67.600 71.513,67.600 70.976 C 67.600 70.439,67.780 70.000,68.000 70.000 C 68.220 70.000,68.400 69.460,68.400 68.800 C 68.400 68.140,68.541 67.600,68.713 67.600 C 68.885 67.600,69.275 66.745,69.580 65.700 C 70.192 63.601,70.791 62.353,71.400 61.906 C 71.620 61.744,71.653 61.609,71.473 61.606 C 71.294 61.603,71.806 60.385,72.612 58.900 C 73.419 57.415,74.554 55.300,75.135 54.200 C 75.717 53.100,76.509 51.851,76.896 51.425 C 77.283 50.998,77.600 50.453,77.600 50.213 C 77.600 49.973,77.960 49.517,78.400 49.200 C 78.840 48.883,79.200 48.393,79.200 48.112 C 79.200 47.831,79.920 46.859,80.800 45.952 C 81.680 45.045,82.400 44.133,82.400 43.924 C 82.400 43.715,83.686 42.341,85.258 40.872 C 86.829 39.402,88.957 37.390,89.985 36.400 C 91.014 35.410,92.557 34.005,93.415 33.278 C 95.936 31.141,93.343 30.654,85.600 31.808 "
            stroke="none"
            fill="#cbe3f3"
            fill-rule="evenodd"
        /><path
            id="path1"
            d="M109.200 124.400 C 109.200 124.620,108.921 124.800,108.580 124.800 C 107.921 124.800,105.853 125.781,104.906 126.543 C 103.255 127.871,102.000 129.128,102.000 129.455 C 102.000 129.658,101.640 130.083,101.200 130.400 C 100.760 130.717,100.400 131.297,100.400 131.688 C 100.400 132.080,100.220 132.400,100.000 132.400 C 99.780 132.400,99.600 132.839,99.600 133.376 C 99.600 133.913,99.420 134.464,99.200 134.600 C 98.162 135.242,99.014 147.200,100.097 147.200 C 100.264 147.200,100.400 147.494,100.400 147.853 C 100.400 148.212,100.716 148.797,101.103 149.153 C 101.489 149.509,102.049 150.275,102.347 150.856 C 102.644 151.437,103.363 152.156,103.944 152.453 C 104.525 152.751,105.291 153.311,105.647 153.697 C 106.003 154.084,106.588 154.400,106.947 154.400 C 107.306 154.400,107.600 154.536,107.600 154.703 C 107.600 155.996,265.404 156.889,266.200 155.600 C 266.336 155.380,266.887 155.200,267.424 155.200 C 267.961 155.200,268.400 155.020,268.400 154.800 C 268.400 154.580,268.625 154.400,268.900 154.400 C 269.351 154.399,269.831 154.053,272.266 151.973 C 273.642 150.799,275.200 148.647,275.200 147.923 C 275.200 147.525,275.380 147.200,275.600 147.200 C 275.820 147.200,276.000 146.851,276.000 146.424 C 276.000 145.997,276.180 145.536,276.400 145.400 C 276.634 145.255,276.800 142.937,276.800 139.800 C 276.800 136.663,276.634 134.345,276.400 134.200 C 276.180 134.064,276.000 133.603,276.000 133.176 C 276.000 132.749,275.820 132.400,275.600 132.400 C 275.380 132.400,275.200 132.045,275.200 131.610 C 275.200 130.518,270.947 126.279,269.000 125.430 C 268.120 125.047,267.087 124.568,266.705 124.366 C 265.715 123.844,109.200 123.877,109.200 124.400 M199.800 184.400 C 199.664 184.620,199.203 184.800,198.776 184.800 C 198.349 184.800,198.000 184.980,198.000 185.200 C 198.000 185.420,197.680 185.600,197.288 185.600 C 196.897 185.600,196.317 185.960,196.000 186.400 C 195.683 186.840,195.265 187.200,195.072 187.200 C 194.640 187.200,192.400 189.559,192.400 190.014 C 192.400 190.195,192.175 190.588,191.900 190.887 C 191.118 191.737,190.400 193.130,190.400 193.795 C 190.400 194.128,190.220 194.400,190.000 194.400 C 189.752 194.400,189.600 196.533,189.600 200.000 C 189.600 203.467,189.752 205.600,190.000 205.600 C 190.220 205.600,190.400 205.872,190.400 206.205 C 190.400 206.870,191.118 208.263,191.900 209.113 C 192.175 209.412,192.400 209.805,192.400 209.986 C 192.400 210.441,194.640 212.800,195.072 212.800 C 195.265 212.800,195.683 213.160,196.000 213.600 C 196.317 214.040,196.897 214.400,197.288 214.400 C 197.680 214.400,198.000 214.580,198.000 214.800 C 198.000 215.020,198.439 215.200,198.976 215.200 C 199.513 215.200,200.064 215.380,200.200 215.600 C 200.515 216.110,320.104 216.156,321.105 215.647 C 321.487 215.452,322.340 215.049,323.000 214.749 C 323.660 214.450,324.491 213.889,324.847 213.503 C 325.203 213.116,325.706 212.800,325.965 212.800 C 326.576 212.800,328.400 210.976,328.400 210.365 C 328.400 210.106,328.716 209.603,329.103 209.247 C 329.489 208.891,330.050 208.060,330.349 207.400 C 330.649 206.740,331.052 205.887,331.247 205.505 C 331.745 204.526,331.702 194.400,331.200 194.400 C 330.980 194.400,330.800 194.128,330.800 193.795 C 330.800 193.023,330.001 191.596,329.100 190.757 C 328.715 190.399,328.400 189.894,328.400 189.635 C 328.400 189.024,326.576 187.200,325.965 187.200 C 325.706 187.200,325.203 186.884,324.847 186.497 C 324.491 186.111,323.660 185.550,323.000 185.251 C 322.340 184.951,321.487 184.548,321.105 184.353 C 320.104 183.844,200.115 183.890,199.800 184.400 "
            stroke="none"
            fill="#fc5cf4"
            fill-rule="evenodd"
        /><path
            id="path2"
            d="M79.100 0.293 C 77.615 0.372,76.400 0.608,76.400 0.818 C 76.400 1.028,75.500 1.200,74.400 1.200 C 73.300 1.200,72.400 1.380,72.400 1.600 C 72.400 1.820,71.680 2.000,70.800 2.000 C 69.920 2.000,69.200 2.180,69.200 2.400 C 69.200 2.620,68.570 2.800,67.800 2.800 C 67.030 2.800,66.400 2.980,66.400 3.200 C 66.400 3.420,65.871 3.600,65.224 3.600 C 64.577 3.600,63.936 3.780,63.800 4.000 C 63.664 4.220,63.113 4.400,62.576 4.400 C 62.039 4.400,61.600 4.580,61.600 4.800 C 61.600 5.020,61.150 5.200,60.600 5.200 C 60.050 5.200,59.600 5.380,59.600 5.600 C 59.600 5.820,59.150 6.000,58.600 6.000 C 58.050 6.000,57.600 6.180,57.600 6.400 C 57.600 6.620,57.240 6.800,56.800 6.800 C 56.360 6.800,56.000 6.980,56.000 7.200 C 56.000 7.420,55.640 7.600,55.200 7.600 C 54.760 7.600,54.400 7.780,54.400 8.000 C 54.400 8.220,53.949 8.400,53.397 8.400 C 52.410 8.400,48.327 10.315,48.067 10.900 C 47.993 11.065,47.588 11.200,47.167 11.200 C 46.745 11.200,46.400 11.380,46.400 11.600 C 46.400 11.820,46.210 12.000,45.978 12.000 C 45.503 12.000,41.015 14.976,39.825 16.081 C 39.398 16.476,38.853 16.800,38.613 16.800 C 38.373 16.800,37.917 17.160,37.600 17.600 C 37.283 18.040,36.825 18.400,36.582 18.400 C 36.340 18.400,35.178 19.300,34.000 20.400 C 32.822 21.500,31.698 22.400,31.503 22.400 C 31.038 22.400,22.400 31.038,22.400 31.503 C 22.400 31.698,21.500 32.822,20.400 34.000 C 19.300 35.178,18.400 36.298,18.400 36.489 C 18.400 36.680,17.950 37.286,17.400 37.836 C 16.850 38.386,16.400 38.995,16.400 39.190 C 16.400 39.384,16.165 39.781,15.878 40.071 C 14.999 40.961,12.000 45.529,12.000 45.978 C 12.000 46.210,11.820 46.400,11.600 46.400 C 11.380 46.400,11.200 46.745,11.200 47.167 C 11.200 47.588,11.065 47.993,10.900 48.067 C 10.386 48.295,8.400 52.353,8.400 53.173 C 8.400 53.602,8.220 54.064,8.000 54.200 C 7.780 54.336,7.600 54.797,7.600 55.224 C 7.600 55.651,7.420 56.000,7.200 56.000 C 6.980 56.000,6.800 56.360,6.800 56.800 C 6.800 57.240,6.620 57.600,6.400 57.600 C 6.180 57.600,6.000 58.050,6.000 58.600 C 6.000 59.150,5.820 59.600,5.600 59.600 C 5.380 59.600,5.200 59.949,5.200 60.376 C 5.200 60.803,5.020 61.264,4.800 61.400 C 4.580 61.536,4.400 62.076,4.400 62.600 C 4.400 63.124,4.220 63.664,4.000 63.800 C 3.780 63.936,3.600 64.577,3.600 65.224 C 3.600 65.871,3.420 66.400,3.200 66.400 C 2.980 66.400,2.800 67.030,2.800 67.800 C 2.800 68.570,2.620 69.200,2.400 69.200 C 2.180 69.200,2.000 69.920,2.000 70.800 C 2.000 71.680,1.820 72.400,1.600 72.400 C 1.380 72.400,1.200 73.285,1.200 74.367 C 1.200 75.584,1.010 76.397,0.700 76.500 C -0.036 76.745,-0.036 323.255,0.700 323.500 C 1.010 323.603,1.200 324.416,1.200 325.633 C 1.200 326.715,1.380 327.600,1.600 327.600 C 1.820 327.600,2.000 328.320,2.000 329.200 C 2.000 330.080,2.180 330.800,2.400 330.800 C 2.620 330.800,2.800 331.430,2.800 332.200 C 2.800 332.970,2.980 333.600,3.200 333.600 C 3.420 333.600,3.600 334.129,3.600 334.776 C 3.600 335.423,3.780 336.064,4.000 336.200 C 4.220 336.336,4.400 336.887,4.400 337.424 C 4.400 337.961,4.580 338.400,4.800 338.400 C 5.020 338.400,5.200 338.850,5.200 339.400 C 5.200 339.950,5.380 340.400,5.600 340.400 C 5.820 340.400,6.000 340.850,6.000 341.400 C 6.000 341.950,6.180 342.400,6.400 342.400 C 6.620 342.400,6.800 342.760,6.800 343.200 C 6.800 343.640,6.980 344.000,7.200 344.000 C 7.420 344.000,7.600 344.349,7.600 344.776 C 7.600 345.203,7.780 345.664,8.000 345.800 C 8.220 345.936,8.400 346.398,8.400 346.827 C 8.400 347.647,10.386 351.705,10.900 351.933 C 11.065 352.007,11.200 352.412,11.200 352.833 C 11.200 353.255,11.380 353.600,11.600 353.600 C 11.820 353.600,12.000 353.836,12.000 354.125 C 12.000 354.413,12.315 354.998,12.700 355.425 C 13.085 355.851,13.640 356.666,13.933 357.236 C 14.227 357.806,14.991 358.886,15.632 359.636 C 16.274 360.386,16.799 361.185,16.799 361.412 C 16.800 361.638,17.160 362.083,17.600 362.400 C 18.040 362.717,18.400 363.175,18.400 363.418 C 18.400 363.660,19.300 364.822,20.400 366.000 C 21.500 367.178,22.400 368.298,22.400 368.490 C 22.400 368.989,29.928 376.463,31.600 377.624 C 32.370 378.158,33.697 379.272,34.548 380.098 C 35.400 380.924,36.305 381.600,36.560 381.600 C 36.815 381.600,37.283 381.960,37.600 382.400 C 37.917 382.840,38.362 383.200,38.588 383.201 C 38.815 383.201,39.614 383.726,40.364 384.368 C 41.114 385.009,42.194 385.773,42.764 386.067 C 43.334 386.360,44.149 386.915,44.575 387.300 C 45.002 387.685,45.587 388.000,45.875 388.000 C 46.164 388.000,46.400 388.180,46.400 388.400 C 46.400 388.620,46.760 388.800,47.200 388.800 C 47.640 388.800,48.000 388.980,48.000 389.200 C 48.000 389.420,48.345 389.600,48.767 389.600 C 49.188 389.600,49.593 389.735,49.667 389.900 C 49.929 390.490,52.342 391.600,53.362 391.600 C 53.933 391.600,54.400 391.780,54.400 392.000 C 54.400 392.220,54.760 392.400,55.200 392.400 C 55.640 392.400,56.000 392.580,56.000 392.800 C 56.000 393.020,56.360 393.200,56.800 393.200 C 57.240 393.200,57.600 393.380,57.600 393.600 C 57.600 393.820,58.050 394.000,58.600 394.000 C 59.150 394.000,59.600 394.180,59.600 394.400 C 59.600 394.620,60.050 394.800,60.600 394.800 C 61.150 394.800,61.600 394.980,61.600 395.200 C 61.600 395.420,62.039 395.600,62.576 395.600 C 63.113 395.600,63.664 395.780,63.800 396.000 C 63.936 396.220,64.667 396.400,65.424 396.400 C 66.181 396.400,66.800 396.580,66.800 396.800 C 66.800 397.020,67.340 397.200,68.000 397.200 C 68.660 397.200,69.200 397.380,69.200 397.600 C 69.200 397.820,69.920 398.000,70.800 398.000 C 71.680 398.000,72.400 398.180,72.400 398.400 C 72.400 398.620,73.285 398.800,74.367 398.800 C 75.584 398.800,76.397 398.990,76.500 399.300 C 76.745 400.036,323.255 400.036,323.500 399.300 C 323.603 398.990,324.416 398.800,325.633 398.800 C 326.715 398.800,327.600 398.620,327.600 398.400 C 327.600 398.180,328.320 398.000,329.200 398.000 C 330.080 398.000,330.800 397.820,330.800 397.600 C 330.800 397.380,331.430 397.200,332.200 397.200 C 332.970 397.200,333.600 397.020,333.600 396.800 C 333.600 396.580,334.129 396.400,334.776 396.400 C 335.423 396.400,336.064 396.220,336.200 396.000 C 336.336 395.780,336.887 395.600,337.424 395.600 C 337.961 395.600,338.400 395.420,338.400 395.200 C 338.400 394.980,338.850 394.800,339.400 394.800 C 339.950 394.800,340.400 394.620,340.400 394.400 C 340.400 394.180,340.850 394.000,341.400 394.000 C 341.950 394.000,342.400 393.820,342.400 393.600 C 342.400 393.380,342.760 393.200,343.200 393.200 C 343.640 393.200,344.000 393.020,344.000 392.800 C 344.000 392.580,344.349 392.400,344.776 392.400 C 345.203 392.400,345.664 392.220,345.800 392.000 C 345.936 391.780,346.398 391.600,346.827 391.600 C 347.647 391.600,351.705 389.614,351.933 389.100 C 352.007 388.935,352.412 388.800,352.833 388.800 C 353.255 388.800,353.600 388.620,353.600 388.400 C 353.600 388.180,353.836 388.000,354.125 388.000 C 354.413 388.000,354.998 387.685,355.425 387.300 C 355.851 386.915,356.668 386.359,357.239 386.065 C 357.811 385.771,358.784 385.096,359.402 384.565 C 360.019 384.034,360.668 383.600,360.844 383.600 C 361.020 383.600,361.614 383.150,362.164 382.600 C 362.714 382.050,363.330 381.600,363.534 381.600 C 363.737 381.600,364.600 380.924,365.452 380.098 C 366.303 379.272,367.630 378.158,368.400 377.622 C 370.211 376.363,376.363 370.211,377.622 368.400 C 378.158 367.630,379.272 366.303,380.098 365.452 C 380.924 364.600,381.600 363.695,381.600 363.440 C 381.600 363.185,381.960 362.717,382.400 362.400 C 382.840 362.083,383.200 361.638,383.201 361.412 C 383.201 361.185,383.726 360.386,384.368 359.636 C 385.009 358.886,385.773 357.806,386.067 357.236 C 386.360 356.666,386.915 355.851,387.300 355.425 C 387.685 354.998,388.000 354.413,388.000 354.125 C 388.000 353.836,388.180 353.600,388.400 353.600 C 388.620 353.600,388.800 353.240,388.800 352.800 C 388.800 352.360,388.980 352.000,389.200 352.000 C 389.420 352.000,389.600 351.655,389.600 351.233 C 389.600 350.812,389.735 350.407,389.900 350.333 C 390.490 350.071,391.600 347.658,391.600 346.638 C 391.600 346.067,391.780 345.600,392.000 345.600 C 392.220 345.600,392.400 345.240,392.400 344.800 C 392.400 344.360,392.580 344.000,392.800 344.000 C 393.020 344.000,393.200 343.640,393.200 343.200 C 393.200 342.760,393.380 342.400,393.600 342.400 C 393.820 342.400,394.000 341.950,394.000 341.400 C 394.000 340.850,394.180 340.400,394.400 340.400 C 394.620 340.400,394.800 339.950,394.800 339.400 C 394.800 338.850,394.980 338.400,395.200 338.400 C 395.420 338.400,395.600 337.961,395.600 337.424 C 395.600 336.887,395.780 336.336,396.000 336.200 C 396.220 336.064,396.400 335.434,396.400 334.800 C 396.400 334.166,396.580 333.536,396.800 333.400 C 397.020 333.264,397.200 332.623,397.200 331.976 C 397.200 331.329,397.380 330.800,397.600 330.800 C 397.820 330.800,398.000 330.080,398.000 329.200 C 398.000 328.320,398.180 327.600,398.400 327.600 C 398.620 327.600,398.800 326.715,398.800 325.633 C 398.800 324.416,398.990 323.603,399.300 323.500 C 400.036 323.255,400.036 76.745,399.300 76.500 C 398.990 76.397,398.800 75.584,398.800 74.367 C 398.800 73.285,398.620 72.400,398.400 72.400 C 398.180 72.400,398.000 71.680,398.000 70.800 C 398.000 69.920,397.820 69.200,397.600 69.200 C 397.380 69.200,397.200 68.570,397.200 67.800 C 397.200 67.030,397.020 66.400,396.800 66.400 C 396.580 66.400,396.400 65.871,396.400 65.224 C 396.400 64.577,396.220 63.936,396.000 63.800 C 395.780 63.664,395.600 63.124,395.600 62.600 C 395.600 62.076,395.420 61.536,395.200 61.400 C 394.980 61.264,394.800 60.803,394.800 60.376 C 394.800 59.949,394.620 59.600,394.400 59.600 C 394.180 59.600,394.000 59.150,394.000 58.600 C 394.000 58.050,393.820 57.600,393.600 57.600 C 393.380 57.600,393.200 57.240,393.200 56.800 C 393.200 56.360,393.020 56.000,392.800 56.000 C 392.580 56.000,392.400 55.640,392.400 55.200 C 392.400 54.760,392.220 54.400,392.000 54.400 C 391.780 54.400,391.600 53.949,391.600 53.397 C 391.600 52.410,389.685 48.327,389.100 48.067 C 388.935 47.993,388.800 47.588,388.800 47.167 C 388.800 46.745,388.620 46.400,388.400 46.400 C 388.180 46.400,388.000 46.164,388.000 45.875 C 388.000 45.587,387.685 45.002,387.300 44.575 C 386.915 44.149,386.360 43.334,386.067 42.764 C 385.773 42.194,385.009 41.114,384.368 40.364 C 383.726 39.614,383.201 38.815,383.201 38.588 C 383.200 38.362,382.840 37.917,382.400 37.600 C 381.960 37.283,381.600 36.825,381.600 36.582 C 381.600 36.340,380.700 35.178,379.600 34.000 C 378.500 32.822,377.600 31.691,377.600 31.486 C 377.600 30.966,368.952 22.400,368.427 22.400 C 368.192 22.400,368.000 22.220,368.000 22.000 C 368.000 21.780,367.820 21.600,367.600 21.600 C 367.381 21.600,366.459 20.880,365.552 20.000 C 364.645 19.120,363.737 18.400,363.534 18.400 C 363.330 18.400,362.714 17.950,362.164 17.400 C 361.614 16.850,361.000 16.400,360.800 16.400 C 360.600 16.400,360.023 15.995,359.518 15.500 C 359.013 15.005,358.060 14.330,357.400 14.000 C 356.740 13.670,355.851 13.085,355.425 12.700 C 354.998 12.315,354.413 12.000,354.125 12.000 C 353.836 12.000,353.600 11.820,353.600 11.600 C 353.600 11.380,353.255 11.200,352.833 11.200 C 352.412 11.200,352.007 11.065,351.933 10.900 C 351.695 10.365,347.716 8.400,346.869 8.400 C 346.417 8.400,345.936 8.220,345.800 8.000 C 345.664 7.780,345.203 7.600,344.776 7.600 C 344.349 7.600,344.000 7.420,344.000 7.200 C 344.000 6.980,343.640 6.800,343.200 6.800 C 342.760 6.800,342.400 6.620,342.400 6.400 C 342.400 6.180,341.950 6.000,341.400 6.000 C 340.850 6.000,340.400 5.820,340.400 5.600 C 340.400 5.380,340.051 5.200,339.624 5.200 C 339.197 5.200,338.736 5.020,338.600 4.800 C 338.464 4.580,337.924 4.400,337.400 4.400 C 336.876 4.400,336.336 4.220,336.200 4.000 C 336.064 3.780,335.524 3.600,335.000 3.600 C 334.476 3.600,333.936 3.420,333.800 3.200 C 333.664 2.980,332.933 2.800,332.176 2.800 C 331.419 2.800,330.800 2.620,330.800 2.400 C 330.800 2.180,330.080 2.000,329.200 2.000 C 328.320 2.000,327.600 1.820,327.600 1.600 C 327.600 1.380,326.715 1.200,325.633 1.200 C 324.416 1.200,323.603 1.010,323.500 0.700 C 323.345 0.234,87.566 -0.159,79.100 0.293 M306.733 32.009 C 306.809 32.232,308.746 32.400,311.233 32.400 C 313.878 32.400,315.600 32.558,315.600 32.800 C 315.600 33.020,316.489 33.200,317.576 33.200 C 318.663 33.200,319.664 33.380,319.800 33.600 C 319.936 33.820,320.566 34.000,321.200 34.000 C 321.834 34.000,322.464 34.180,322.600 34.400 C 322.736 34.620,323.467 34.800,324.224 34.800 C 324.981 34.800,325.600 34.980,325.600 35.200 C 325.600 35.420,326.050 35.600,326.600 35.600 C 327.150 35.600,327.600 35.780,327.600 36.000 C 327.600 36.220,327.836 36.400,328.125 36.400 C 328.414 36.400,329.395 36.760,330.306 37.200 C 331.216 37.640,332.240 38.000,332.581 38.000 C 332.921 38.000,333.201 38.135,333.203 38.300 C 333.205 38.465,333.610 38.793,334.103 39.029 C 336.647 40.247,339.415 41.804,339.533 42.084 C 339.607 42.258,339.972 42.400,340.345 42.400 C 340.718 42.400,341.283 42.760,341.600 43.200 C 341.917 43.640,342.323 44.000,342.502 44.000 C 342.680 44.000,343.427 44.585,344.160 45.300 C 345.763 46.862,347.134 48.000,347.413 48.000 C 347.680 48.000,352.000 52.320,352.000 52.587 C 352.000 52.866,353.138 54.237,354.700 55.840 C 355.415 56.573,356.000 57.358,356.000 57.583 C 356.000 57.809,356.360 58.218,356.800 58.493 C 357.240 58.768,357.600 59.294,357.600 59.663 C 357.600 60.032,357.756 60.393,357.946 60.467 C 358.136 60.540,359.200 62.400,360.311 64.600 C 362.146 68.235,362.895 69.863,364.087 72.800 C 364.311 73.350,364.652 74.113,364.847 74.495 C 365.041 74.877,365.200 75.631,365.200 76.171 C 365.200 76.711,365.380 77.264,365.600 77.400 C 365.820 77.536,366.000 78.166,366.000 78.800 C 366.000 79.434,366.180 80.064,366.400 80.200 C 366.620 80.336,366.800 81.326,366.800 82.400 C 366.800 83.474,366.980 84.464,367.200 84.600 C 367.427 84.740,367.600 86.730,367.600 89.200 C 367.600 91.670,367.773 93.660,368.000 93.800 C 368.554 94.143,368.554 305.857,368.000 306.200 C 367.773 306.340,367.600 308.330,367.600 310.800 C 367.600 313.270,367.427 315.260,367.200 315.400 C 366.980 315.536,366.800 316.436,366.800 317.400 C 366.800 318.364,366.620 319.264,366.400 319.400 C 366.180 319.536,366.000 320.256,366.000 321.000 C 366.000 321.744,365.820 322.464,365.600 322.600 C 365.380 322.736,365.200 323.467,365.200 324.224 C 365.200 324.981,365.020 325.600,364.800 325.600 C 364.580 325.600,364.400 325.872,364.400 326.205 C 364.400 326.538,364.240 327.123,364.044 327.505 C 363.848 327.887,363.285 329.100,362.792 330.200 C 361.137 333.897,358.274 339.399,357.936 339.533 C 357.751 339.607,357.600 339.972,357.600 340.345 C 357.600 340.718,357.240 341.283,356.800 341.600 C 356.360 341.917,356.000 342.331,356.000 342.520 C 356.000 342.708,355.280 343.554,354.400 344.400 C 353.520 345.246,352.800 346.131,352.800 346.369 C 352.800 346.606,352.620 346.800,352.400 346.800 C 352.180 346.800,352.000 346.984,352.000 347.209 C 352.000 347.433,351.014 348.603,349.809 349.809 C 348.603 351.014,347.433 352.000,347.209 352.000 C 346.984 352.000,346.800 352.180,346.800 352.400 C 346.800 352.620,346.606 352.800,346.369 352.800 C 346.131 352.800,345.246 353.520,344.400 354.400 C 343.554 355.280,342.708 356.000,342.520 356.000 C 342.331 356.000,341.917 356.360,341.600 356.800 C 341.283 357.240,340.718 357.600,340.345 357.600 C 339.972 357.600,339.607 357.751,339.533 357.936 C 339.399 358.274,333.897 361.137,330.200 362.792 C 329.100 363.285,327.887 363.848,327.505 364.044 C 327.123 364.240,326.538 364.400,326.205 364.400 C 325.872 364.400,325.600 364.580,325.600 364.800 C 325.600 365.020,324.981 365.200,324.224 365.200 C 323.467 365.200,322.736 365.380,322.600 365.600 C 322.464 365.820,321.744 366.000,321.000 366.000 C 320.256 366.000,319.536 366.180,319.400 366.400 C 319.264 366.620,318.364 366.800,317.400 366.800 C 316.436 366.800,315.536 366.980,315.400 367.200 C 315.261 367.425,313.340 367.600,311.010 367.600 C 308.670 367.600,306.809 367.770,306.733 367.991 C 306.552 368.524,87.971 368.540,84.400 368.007 C 56.859 363.898,35.876 342.365,31.775 314.000 C 30.958 308.350,30.958 91.650,31.775 86.000 C 35.106 62.958,50.047 43.748,71.000 35.565 C 75.429 33.835,80.533 32.539,85.600 31.857 C 90.022 31.263,306.529 31.411,306.733 32.009 M78.000 63.177 C 77.670 63.359,76.860 63.752,76.200 64.051 C 75.540 64.350,74.709 64.911,74.353 65.297 C 73.997 65.684,73.494 66.000,73.235 66.000 C 72.594 66.000,70.800 67.837,70.800 68.494 C 70.800 68.785,70.440 69.283,70.000 69.600 C 69.560 69.917,69.200 70.497,69.200 70.888 C 69.200 71.280,69.020 71.600,68.800 71.600 C 68.580 71.600,68.400 71.949,68.400 72.376 C 68.400 72.803,68.220 73.264,68.000 73.400 C 67.767 73.544,67.600 75.796,67.600 78.800 C 67.600 81.804,67.767 84.056,68.000 84.200 C 68.220 84.336,68.400 84.887,68.400 85.424 C 68.400 85.961,68.580 86.400,68.800 86.400 C 69.020 86.400,69.200 86.720,69.200 87.112 C 69.200 87.503,69.560 88.083,70.000 88.400 C 70.440 88.717,70.800 89.125,70.800 89.306 C 70.800 89.810,72.701 91.600,73.235 91.600 C 73.494 91.600,73.997 91.916,74.353 92.303 C 74.709 92.689,75.540 93.250,76.200 93.549 C 76.860 93.849,77.713 94.252,78.095 94.447 C 79.094 94.955,154.800 94.909,154.800 94.400 C 154.800 94.180,155.250 94.000,155.800 94.000 C 156.350 94.000,156.800 93.820,156.800 93.600 C 156.800 93.380,157.068 93.200,157.397 93.200 C 157.725 93.200,158.218 92.840,158.493 92.400 C 158.768 91.960,159.227 91.600,159.514 91.600 C 160.087 91.600,162.000 89.835,162.000 89.306 C 162.000 89.125,162.360 88.717,162.800 88.400 C 163.240 88.083,163.600 87.503,163.600 87.112 C 163.600 86.720,163.780 86.400,164.000 86.400 C 164.220 86.400,164.400 85.961,164.400 85.424 C 164.400 84.887,164.580 84.336,164.800 84.200 C 165.033 84.056,165.200 81.804,165.200 78.800 C 165.200 75.796,165.033 73.544,164.800 73.400 C 164.580 73.264,164.400 72.803,164.400 72.376 C 164.400 71.949,164.220 71.600,164.000 71.600 C 163.780 71.600,163.600 71.280,163.600 70.888 C 163.600 70.497,163.240 69.917,162.800 69.600 C 162.360 69.283,162.000 68.785,162.000 68.494 C 162.000 67.837,160.206 66.000,159.565 66.000 C 159.306 66.000,158.803 65.684,158.447 65.297 C 158.091 64.911,157.260 64.350,156.600 64.051 C 155.940 63.751,155.087 63.348,154.705 63.153 C 153.826 62.706,78.814 62.729,78.000 63.177 M155.700 245.339 C 154.985 245.574,154.400 245.908,154.400 246.083 C 154.400 246.257,154.106 246.400,153.747 246.400 C 153.388 246.400,152.803 246.716,152.447 247.103 C 152.091 247.489,151.325 248.049,150.744 248.347 C 150.163 248.644,149.444 249.363,149.147 249.944 C 148.849 250.525,148.289 251.291,147.903 251.647 C 147.516 252.003,147.200 252.588,147.200 252.947 C 147.200 253.306,147.064 253.600,146.897 253.600 C 145.814 253.600,144.962 265.558,146.000 266.200 C 146.220 266.336,146.400 266.887,146.400 267.424 C 146.400 267.961,146.580 268.400,146.800 268.400 C 147.020 268.400,147.200 268.625,147.200 268.900 C 147.202 270.271,152.273 275.200,153.681 275.200 C 154.077 275.200,154.400 275.380,154.400 275.600 C 154.400 275.820,154.749 276.000,155.176 276.000 C 155.603 276.000,156.064 276.180,156.200 276.400 C 156.542 276.954,297.458 276.954,297.800 276.400 C 297.936 276.180,298.397 276.000,298.824 276.000 C 299.251 276.000,299.600 275.820,299.600 275.600 C 299.600 275.380,299.925 275.200,300.323 275.200 C 301.047 275.200,303.199 273.642,304.373 272.266 C 304.718 271.863,305.325 271.148,305.723 270.679 C 306.120 270.209,306.720 269.190,307.056 268.413 C 307.392 267.636,307.832 266.687,308.034 266.305 C 309.514 263.498,308.109 254.335,305.726 251.264 C 303.687 248.636,303.088 248.000,302.653 248.000 C 302.391 248.000,301.917 247.640,301.600 247.200 C 301.283 246.760,300.703 246.400,300.312 246.400 C 299.920 246.400,299.600 246.220,299.600 246.000 C 299.600 245.780,299.161 245.600,298.624 245.600 C 298.087 245.600,297.536 245.420,297.400 245.200 C 297.045 244.625,157.460 244.762,155.700 245.339 M273.200 306.400 C 273.200 306.620,272.840 306.800,272.400 306.800 C 271.960 306.800,271.600 306.980,271.600 307.200 C 271.600 307.420,271.240 307.600,270.800 307.600 C 270.360 307.600,270.000 307.768,270.000 307.973 C 270.000 308.178,269.649 308.457,269.220 308.594 C 268.319 308.880,266.000 310.953,266.000 311.472 C 266.000 311.665,265.640 312.083,265.200 312.400 C 264.760 312.717,264.400 313.297,264.400 313.688 C 264.400 314.080,264.220 314.400,264.000 314.400 C 263.780 314.400,263.600 314.839,263.600 315.376 C 263.600 315.913,263.420 316.464,263.200 316.600 C 262.162 317.242,263.014 329.200,264.097 329.200 C 264.264 329.200,264.400 329.494,264.400 329.853 C 264.400 330.212,264.716 330.797,265.103 331.153 C 265.489 331.509,266.049 332.275,266.347 332.856 C 266.644 333.437,267.363 334.156,267.944 334.453 C 268.525 334.751,269.291 335.311,269.647 335.697 C 270.003 336.084,270.588 336.400,270.947 336.400 C 271.306 336.400,271.600 336.536,271.600 336.703 C 271.600 337.954,317.835 338.837,318.600 337.600 C 318.736 337.380,319.287 337.200,319.824 337.200 C 320.361 337.200,320.800 337.020,320.800 336.800 C 320.800 336.580,321.025 336.400,321.300 336.400 C 322.142 336.399,326.000 332.989,326.000 332.246 C 326.000 331.988,326.360 331.517,326.800 331.200 C 327.240 330.883,327.600 330.303,327.600 329.912 C 327.600 329.520,327.780 329.200,328.000 329.200 C 328.220 329.200,328.400 328.851,328.400 328.424 C 328.400 327.997,328.580 327.536,328.800 327.400 C 329.034 327.255,329.200 324.937,329.200 321.800 C 329.200 318.663,329.034 316.345,328.800 316.200 C 328.580 316.064,328.400 315.603,328.400 315.176 C 328.400 314.749,328.220 314.400,328.000 314.400 C 327.780 314.400,327.600 314.080,327.600 313.688 C 327.600 313.297,327.240 312.717,326.800 312.400 C 326.360 312.083,326.000 311.658,326.000 311.455 C 326.000 311.099,324.656 309.749,322.859 308.300 C 322.381 307.915,321.723 307.600,321.395 307.600 C 321.068 307.600,320.800 307.420,320.800 307.200 C 320.800 306.980,320.350 306.800,319.800 306.800 C 319.250 306.800,318.800 306.620,318.800 306.400 C 318.800 306.138,310.933 306.000,296.000 306.000 C 281.067 306.000,273.200 306.138,273.200 306.400 "
            stroke="none"
            fill="#142cbc"
            fill-rule="evenodd"
        /></g></svg>
